<svg width="24" height="24" viewBox="0 0 24 24" fill="none" xmlns="http://www.w3.org/2000/svg">
<path fill-rule="evenodd" clip-rule="evenodd" d="M10.7885 3.72828C10.7645 3.85503 10.75 4.02516 10.75 4.25V4.44066L12 8.94516L13.25 4.44066V4.25C13.25 4.02516 13.2355 3.85503 13.2115 3.72828C13.1873 3.60073 13.1581 3.54192 13.1449 3.52109L13.1421 3.51685C13.1297 3.51221 13.0884 3.5 13 3.5H11C10.9116 3.5 10.8703 3.51221 10.8579 3.51685L10.8551 3.52109C10.8419 3.54192 10.8127 3.60073 10.7885 3.72828ZM6.45138 3.83228C7.28192 3.33132 8.26758 3.05109 9.44146 3.00636C9.48159 2.90655 9.52962 2.81064 9.58694 2.71991C9.91446 2.20151 10.4395 2 11 2H13C13.5605 2 14.0855 2.20151 14.4131 2.71991C14.4704 2.81064 14.5184 2.90655 14.5585 3.00636C15.7324 3.05109 16.7181 3.33132 17.5487 3.83225C18.4556 4.37921 19.1248 5.1573 19.6496 6.06146C20.591 7.68253 20.6544 9.29826 20.7454 11.6181L20.7494 11.7205L20.7705 12.2566C20.9204 12.4247 21.0454 12.6016 21.145 12.7639C21.5028 13.3474 21.75 14.0869 21.75 14.687V15.376C21.75 15.9762 21.5028 16.7157 21.1448 17.2992C20.8119 17.8419 20.1951 18.546 19.312 18.546C19.1761 18.546 19.0423 18.5353 18.9118 18.5149L17.4801 19.9466C14.4535 22.9731 9.54649 22.9731 6.51992 19.9466L5.08821 18.5149C4.95766 18.5353 4.82391 18.546 4.688 18.546C3.80494 18.546 3.18812 17.8419 2.85521 17.2992C2.49724 16.7157 2.25 15.9762 2.25 15.376V14.687C2.25 14.0864 2.4972 13.3469 2.85525 12.7634C2.9548 12.6011 3.07971 12.4245 3.22951 12.2566L3.25058 11.7205L3.2546 11.618C3.34559 9.29836 3.40897 7.68249 4.35142 6.06139C4.87579 5.15724 5.54463 4.37921 6.45138 3.83228ZM14.45 7.75H13.8883L12.9865 11H19.2184C19.1307 9.04324 19.0052 7.93861 18.3524 6.81466C17.9183 6.06682 17.4109 5.50079 16.7741 5.11675C16.2528 4.80242 15.6092 4.58832 14.7841 4.5219L14.75 4.64493V7.45C14.75 7.61569 14.6157 7.75 14.45 7.75ZM9.25 7.45V4.64493L9.21586 4.5219C8.39085 4.58832 7.7472 4.80242 7.22612 5.11672C6.5895 5.50071 6.08196 6.06729 5.64837 6.81499C4.99492 7.93882 4.8693 9.04326 4.78163 11H11.0135L10.1117 7.75H9.55C9.38431 7.75 9.25 7.61569 9.25 7.45ZM5.0227 12.5L4.91119 13.0395C4.83822 13.0244 4.76389 13.0169 4.68938 13.017L4.688 13.017C4.63888 13.017 4.41171 13.0949 4.13375 13.5479C3.8808 13.9601 3.75 14.4306 3.75 14.687V15.376C3.75 15.6319 3.88076 16.1023 4.13379 16.5148C4.41188 16.9681 4.63906 17.046 4.688 17.046C4.81979 17.046 4.94492 17.0223 5.05822 16.9804L5.50874 16.8141L7.58058 18.8859C10.0214 21.3267 13.9786 21.3267 16.4194 18.8859L18.4913 16.8141L18.9418 16.9804C19.0551 17.0223 19.1802 17.046 19.312 17.046C19.3609 17.046 19.5881 16.9681 19.8662 16.5148C20.1192 16.1023 20.25 15.6319 20.25 15.376V14.687C20.25 14.4311 20.1192 13.9606 19.8663 13.5481C19.5881 13.0945 19.3612 13.017 19.313 13.017C19.2341 13.017 19.1594 13.025 19.091 13.0392L18.9786 12.5H5.0227ZM10.5235 19.081C10.1182 18.8108 9.75 18.355 9.75 17.75H11.25C11.25 17.7416 11.2492 17.7357 11.2484 17.7319C11.2542 17.7445 11.2778 17.7811 11.3555 17.833C11.4878 17.9212 11.7136 18 12 18C12.2864 18 12.5122 17.9212 12.6445 17.833C12.7222 17.7811 12.7458 17.7445 12.7516 17.7319C12.7508 17.7357 12.75 17.7416 12.75 17.75H14.25C14.25 18.355 13.8818 18.8108 13.4765 19.081C13.0658 19.3548 12.5416 19.5 12 19.5C11.4584 19.5 10.9342 19.3548 10.5235 19.081ZM9.25 13.75C8.83579 13.75 8.5 14.0858 8.5 14.5V15C8.5 15.4142 8.83579 15.75 9.25 15.75C9.66421 15.75 10 15.4142 10 15V14.5C10 14.0858 9.66421 13.75 9.25 13.75ZM14.75 13.75C14.3358 13.75 14 14.0858 14 14.5V15C14 15.4142 14.3358 15.75 14.75 15.75C15.1642 15.75 15.5 15.4142 15.5 15V14.5C15.5 14.0858 15.1642 13.75 14.75 13.75Z" fill="#fff"/>
</svg>
