<?xml version="1.0" standalone="no"?>
<!DOCTYPE svg PUBLIC "-//W3C//DTD SVG 20010904//EN"
 "http://www.w3.org/TR/2001/REC-SVG-20010904/DTD/svg10.dtd">
<svg version="1.0" xmlns="http://www.w3.org/2000/svg"
 width="499.000000pt" height="499.000000pt" viewBox="0 0 499.000000 499.000000"
 preserveAspectRatio="xMidYMid meet">

<g transform="translate(0.000000,499.000000) scale(0.100000,-0.100000)"
fill="#000000" stroke="none">
<path d="M1794 4629 c-11 -18 13 -33 74 -45 109 -22 190 -73 422 -264 180
-148 353 -202 493 -154 102 35 86 75 -19 49 -162 -40 -280 8 -530 217 -129
107 -197 151 -290 184 -69 25 -138 31 -150 13z"/>
<path d="M1478 4489 c-99 -13 -242 -62 -330 -114 -82 -48 -208 -158 -208 -181
0 -33 32 -24 84 23 254 233 619 290 921 143 44 -21 153 -86 243 -145 320 -209
503 -267 686 -220 107 28 155 60 128 87 -7 7 -31 2 -78 -17 -59 -24 -82 -27
-169 -27 -165 0 -253 37 -540 222 -82 53 -179 113 -215 132 -84 46 -206 84
-311 98 -93 11 -115 11 -211 -1z"/>
<path d="M3433 4266 c-40 -18 -40 -20 -13 -220 23 -170 18 -218 -33 -293 -48
-71 -113 -107 -203 -111 -90 -5 -131 8 -200 64 -29 24 -59 44 -66 44 -16 0
-108 -105 -156 -177 -19 -29 -39 -53 -43 -53 -5 0 -13 18 -19 41 -10 36 -8 46
12 87 19 38 35 54 86 81 62 35 72 47 51 68 -24 24 -155 -61 -186 -120 -24 -46
-20 -126 7 -175 l22 -40 -25 -53 c-26 -55 -40 -92 -170 -429 -237 -613 -236
-612 -217 -708 18 -86 57 -156 121 -217 60 -58 89 -67 125 -40 30 22 45 19
119 -31 59 -38 75 -45 104 -40 44 7 70 33 77 77 5 29 -1 44 -40 101 -25 37
-46 75 -46 86 0 21 59 82 81 82 8 0 46 -21 84 -46 59 -38 75 -45 104 -40 44 7
70 33 77 77 5 30 -1 45 -40 102 -25 37 -46 75 -46 85 0 23 60 82 83 82 9 0 47
-21 84 -46 57 -39 72 -45 102 -40 44 7 70 33 77 77 5 30 -1 45 -40 102 -25 37
-46 75 -46 85 0 23 60 82 83 82 10 0 47 -20 84 -45 36 -25 74 -45 85 -45 32 0
78 29 88 56 16 42 12 58 -35 130 -24 38 -45 76 -45 84 0 22 122 140 144 140
10 0 45 -19 78 -42 76 -54 127 -58 164 -15 35 41 30 74 -21 153 -24 38 -45 76
-45 85 0 22 62 79 86 79 11 0 44 -18 73 -39 29 -22 65 -43 80 -46 62 -13 118
38 108 98 -3 19 -24 60 -46 92 -46 66 -48 72 -24 112 10 18 14 39 10 54 -4 13
-135 152 -300 317 -318 317 -322 320 -394 288z m106 -71 c37 -34 40 -40 46
-108 4 -40 2 -108 -4 -152 -15 -123 3 -128 133 -34 65 48 69 49 87 33 10 -9
19 -22 19 -27 0 -19 -81 -150 -150 -242 -84 -111 -234 -258 -326 -318 -38 -24
-118 -73 -179 -108 -120 -70 -215 -155 -276 -249 -20 -30 -70 -115 -111 -188
-41 -73 -103 -175 -139 -225 -62 -89 -277 -317 -298 -317 -14 0 -15 113 -2
155 10 33 31 88 111 297 l52 137 47 10 c29 6 50 6 56 0 5 -5 22 -9 37 -9 37 0
57 38 40 75 -15 32 -69 35 -95 5 -9 -11 -26 -20 -38 -20 -22 0 -21 15 5 70 11
23 17 25 81 25 39 0 76 4 83 8 15 10 16 59 0 75 -19 19 -63 14 -83 -8 -19 -21
-45 -27 -45 -10 0 6 6 26 14 44 17 40 60 55 107 36 57 -24 106 42 63 84 -21
22 -54 20 -80 -5 -12 -11 -29 -19 -37 -17 -14 3 -13 9 4 50 18 41 26 47 65 57
37 10 48 9 69 -5 33 -22 73 -11 81 21 9 35 -2 55 -36 68 -34 13 -39 27 -10 27
54 0 140 57 140 92 0 31 -30 33 -57 4 -14 -15 -36 -31 -50 -37 -28 -10 -77
-12 -86 -3 -8 8 40 80 100 152 l45 52 39 -34 c43 -36 149 -76 203 -76 19 0 63
9 99 20 112 35 194 128 216 246 9 45 -8 274 -24 343 -6 24 7 41 32 41 7 0 31
-16 52 -35z m155 -242 c-26 -23 -50 -40 -53 -39 -3 2 -5 43 -3 91 l4 88 49
-49 50 -49 -47 -42z m223 -195 c-47 -123 -150 -256 -288 -374 -489 -416 -558
-483 -681 -657 -40 -56 -99 -136 -133 -177 -75 -94 -394 -420 -410 -420 -6 0
-20 15 -29 33 l-18 32 139 140 c152 154 215 240 337 459 43 77 95 162 115 190
58 78 148 156 245 211 299 171 461 325 624 596 l47 78 34 -34 34 -34 -16 -43z
m117 -57 c48 -49 49 -50 33 -75 -10 -14 -17 -43 -17 -64 0 -32 -7 -45 -44 -81
-30 -29 -51 -42 -67 -41 -48 4 -59 -1 -104 -47 -37 -40 -45 -54 -45 -86 0 -32
-8 -47 -42 -83 -37 -38 -47 -44 -84 -44 -39 0 -47 -5 -118 -77 -67 -69 -76
-82 -76 -115 0 -29 -8 -46 -42 -82 -36 -40 -46 -46 -82 -46 -36 0 -48 -6 -89
-47 -41 -40 -47 -51 -47 -87 0 -36 -6 -48 -43 -84 -36 -35 -49 -42 -82 -42
-34 0 -47 -7 -87 -46 -42 -40 -48 -52 -48 -87 0 -35 -6 -48 -42 -84 -36 -36
-48 -43 -82 -43 -35 0 -47 -7 -88 -47 -41 -41 -48 -53 -48 -87 0 -34 -7 -47
-42 -83 -37 -37 -48 -43 -84 -43 -24 0 -46 -4 -49 -10 -9 -14 -48 -13 -63 2
-9 9 33 57 186 212 123 125 227 241 275 306 213 292 240 321 556 589 326 276
401 358 476 518 14 29 29 53 33 53 4 0 30 -22 56 -49z m81 -260 c28 -41 28
-74 -1 -85 -15 -6 -52 10 -88 39 -19 15 -19 16 14 50 19 19 37 35 41 35 3 0
19 -18 34 -39z m-1355 -51 c0 -8 -42 -22 -48 -15 -2 2 2 13 8 25 9 17 14 19
26 9 8 -6 14 -15 14 -19z m1095 -209 c28 -41 28 -74 -1 -85 -15 -6 -52 10 -88
39 -19 15 -19 16 14 50 19 19 37 35 41 35 3 0 19 -18 34 -39z m-321 -322 c30
-44 28 -74 -5 -84 -17 -6 -43 8 -98 52 -6 4 60 73 70 73 3 0 18 -18 33 -41z
m-260 -260 c48 -71 8 -111 -63 -63 -23 15 -41 29 -41 32 0 9 63 72 71 72 3 0
18 -18 33 -41z m-260 -260 c48 -71 8 -111 -63 -63 -23 15 -41 29 -41 32 0 9
63 72 71 72 3 0 18 -18 33 -41z m-260 -260 c48 -72 6 -113 -65 -64 -21 15 -39
30 -39 33 0 9 63 72 71 72 3 0 18 -18 33 -41z"/>
<path d="M1555 4251 c-443 -72 -755 -432 -755 -873 0 -381 241 -709 610 -829
115 -37 282 -50 407 -29 275 44 530 238 648 492 141 305 99 651 -111 917 -112
141 -287 254 -469 301 -89 23 -252 33 -330 21z m295 -64 c30 -7 54 -16 53 -20
-1 -4 -53 -46 -115 -92 -94 -69 -116 -81 -130 -71 -120 82 -218 160 -211 166
27 27 300 38 403 17z m-332 -147 l132 -95 0 -57 0 -57 -174 -127 c-235 -172
-212 -160 -277 -141 l-54 16 -53 161 c-51 154 -53 162 -37 186 43 66 292 233
320 216 7 -4 71 -50 143 -102z m572 50 c37 -21 101 -71 142 -110 l76 -70 -50
-157 c-28 -87 -55 -163 -60 -170 -5 -7 -33 -17 -61 -24 l-52 -11 -192 138
-192 139 -1 61 0 61 138 101 c155 112 137 109 252 42z m-1040 -388 c23 -73 41
-134 39 -135 -2 -2 -55 -40 -117 -85 -62 -45 -115 -82 -117 -82 -22 0 18 200
60 299 32 77 78 153 86 143 4 -4 26 -67 49 -140z m1344 75 c51 -93 87 -210 94
-302 l5 -80 -34 26 c-19 13 -73 53 -120 88 l-85 62 45 139 c25 76 48 137 53
134 4 -3 23 -33 42 -67z m-525 -137 c99 -73 181 -134 181 -137 0 -3 -32 -104
-71 -224 l-72 -219 -235 2 -236 3 -67 208 c-38 114 -70 214 -71 221 -3 16 361
287 378 281 7 -2 93 -63 193 -135z m-676 -128 l48 -17 75 -228 75 -227 -36
-50 -37 -50 -172 2 -171 3 -37 70 c-41 78 -76 195 -80 269 l-3 49 135 98 c74
55 139 99 145 98 5 0 32 -8 58 -17z m1163 -79 l135 -98 -5 -65 c-7 -75 -39
-176 -85 -267 l-31 -63 -173 0 -172 1 -32 44 c-18 24 -33 52 -32 62 0 10 33
114 72 232 l72 214 45 17 c25 10 51 18 58 19 7 1 74 -43 148 -96z m-408 -476
l35 -49 -52 -159 c-46 -142 -56 -161 -79 -171 -43 -17 -268 -21 -332 -6 l-54
13 -52 162 -52 162 36 51 35 50 240 -2 241 -3 34 -48z m-627 -94 c26 -67 79
-246 74 -251 -8 -8 -83 28 -160 76 -65 40 -215 176 -215 194 0 5 65 8 145 8
l145 0 11 -27z m999 18 c0 -17 -85 -104 -149 -152 -68 -52 -202 -124 -218
-118 -5 2 10 66 34 142 l44 137 144 0 c80 0 145 -4 145 -9z"/>
<path d="M2483 3894 c-10 -26 10 -69 32 -69 26 0 31 30 11 60 -19 29 -34 32
-43 9z"/>
<path d="M2672 3869 c-72 -36 -135 -133 -109 -166 15 -21 25 -15 46 25 25 48
66 87 114 107 26 11 37 21 35 33 -5 25 -37 25 -86 1z"/>
<path d="M960 2631 c0 -46 103 -142 210 -196 100 -50 188 -72 419 -105 116
-16 244 -39 284 -51 98 -29 199 -83 263 -142 53 -48 74 -53 74 -18 0 23 -80
98 -142 135 -107 63 -264 106 -456 125 -295 30 -467 97 -574 221 -44 51 -78
65 -78 31z"/>
<path d="M3523 2633 c-16 -41 126 -106 223 -101 51 3 59 6 59 23 0 17 -9 21
-67 26 -48 4 -86 15 -129 37 -71 37 -77 38 -86 15z"/>
<path d="M2028 2489 c-65 -53 -37 -93 30 -43 45 34 52 43 45 61 -8 21 -35 15
-75 -18z"/>
<path d="M2140 2435 c-15 -39 -12 -75 6 -82 23 -9 35 9 37 58 2 34 -2 44 -15
47 -12 2 -21 -6 -28 -23z"/>
<path d="M3307 2413 c-27 -26 13 -50 147 -85 188 -49 541 -9 478 54 -7 7 -36
4 -92 -7 -145 -30 -321 -19 -448 26 -56 20 -75 23 -85 12z"/>
<path d="M4030 2224 c-172 -67 -242 -79 -470 -78 -190 0 -212 2 -305 27 -114
31 -131 32 -138 13 -9 -23 14 -35 119 -62 83 -22 129 -27 285 -31 166 -5 199
-3 300 17 109 22 311 88 332 109 14 14 1 41 -20 40 -10 -1 -56 -16 -103 -35z"/>
<path d="M1344 2226 c-13 -34 3 -43 83 -49 119 -8 284 -75 376 -153 33 -28 52
-30 61 -8 15 40 -179 158 -319 192 -123 31 -194 37 -201 18z"/>
<path d="M2893 2094 c-8 -22 33 -61 102 -94 77 -37 137 -47 155 -26 17 22 -3
46 -39 46 -48 0 -97 20 -138 55 -44 38 -70 44 -80 19z"/>
<path d="M4388 1850 c-43 -23 -78 -65 -78 -94 0 -33 60 -128 189 -297 77 -102
124 -155 138 -157 29 -4 96 57 122 112 61 126 -31 295 -137 250 l-32 -13 0 47
c-1 94 -62 173 -135 172 -16 -1 -46 -10 -67 -20z m107 -62 c33 -26 55 -75 55
-123 0 -37 -21 -98 -37 -108 -14 -9 -152 181 -153 208 0 16 52 44 81 45 15 0
39 -10 54 -22z m206 -204 c32 -53 35 -110 7 -163 -13 -25 -32 -50 -43 -58 -19
-12 -25 -7 -78 67 l-58 80 42 50 c44 53 52 58 86 59 14 1 29 -11 44 -35z"/>
<path d="M507 1815 c-55 -21 -120 -71 -208 -162 -108 -111 -133 -171 -91 -222
20 -25 139 -71 183 -71 26 0 30 3 27 23 -2 18 -16 26 -72 44 -39 13 -76 29
-84 37 -21 21 -8 61 37 109 l39 41 81 -23 c84 -25 115 -23 109 6 -2 12 -24 25
-65 38 -35 11 -61 25 -60 30 6 18 101 85 144 101 40 16 43 15 98 -11 73 -34
98 -31 59 9 -34 34 -99 66 -134 65 -14 0 -42 -7 -63 -14z"/>
<path d="M4226 1702 c-2 -4 30 -69 73 -144 105 -183 140 -294 111 -349 -14
-26 -43 -24 -78 6 -33 28 -126 161 -191 273 -29 50 -48 72 -61 72 -29 0 -25
-23 20 -116 51 -105 146 -232 202 -269 107 -72 191 7 159 149 -26 118 -173
386 -211 386 -10 0 -21 -4 -24 -8z"/>
<path d="M791 1638 c-93 -46 -366 -336 -359 -382 5 -37 31 -23 92 51 l60 72
61 -35 c33 -19 66 -38 74 -43 11 -7 5 -25 -33 -91 -44 -76 -53 -117 -23 -108
19 7 162 223 213 324 30 59 48 109 51 141 5 45 3 52 -22 71 -35 28 -59 28
-114 0z m89 -47 c0 -27 -99 -243 -117 -254 -4 -3 -39 13 -77 35 l-68 40 73 75
c75 75 151 133 176 133 8 0 13 -11 13 -29z"/>
<path d="M992 1490 c-36 -22 -71 -88 -72 -131 0 -37 22 -94 60 -159 43 -72 49
-126 20 -162 -35 -46 -72 -38 -136 27 -30 31 -54 60 -54 65 0 16 -30 11 -36
-5 -12 -29 58 -115 118 -146 66 -34 123 -20 160 39 36 58 29 114 -26 214 -57
105 -61 154 -17 198 78 78 168 29 142 -77 -14 -55 -14 -63 5 -63 23 0 47 67
41 114 -8 60 -52 98 -119 103 -41 3 -60 -1 -86 -17z"/>
<path d="M3841 1471 c-12 -8 -8 -28 23 -116 38 -110 149 -370 168 -392 18 -22
42 -14 68 23 13 20 50 60 82 87 33 29 54 55 49 60 -14 14 -83 -27 -125 -73
-21 -23 -39 -40 -42 -38 -8 9 -84 180 -133 303 -57 141 -68 159 -90 146z"/>
<path d="M3697 1409 c-9 -6 -32 -38 -49 -72 -28 -55 -32 -73 -36 -165 -4 -93
-1 -113 23 -189 49 -150 120 -191 213 -123 51 37 103 123 100 165 -4 47 -32
44 -48 -5 -18 -55 -85 -130 -115 -130 -39 0 -55 11 -75 49 -55 109 -65 287
-22 384 28 62 48 59 81 -11 14 -28 29 -52 34 -52 28 0 13 87 -24 134 -21 27
-51 33 -82 15z"/>
<path d="M1246 1333 c-3 -42 -6 -113 -6 -157 0 -74 -5 -93 -45 -194 -25 -61
-45 -116 -45 -122 0 -5 8 -10 19 -10 13 0 31 28 69 108 44 93 57 112 104 148
68 53 198 173 198 184 0 4 -7 11 -17 14 -20 8 -68 -23 -151 -99 -35 -32 -65
-55 -68 -52 -3 2 -8 54 -11 113 -5 105 -14 144 -32 144 -4 0 -11 -34 -15 -77z"/>
<path d="M3206 1250 c-73 -23 -116 -105 -95 -182 16 -61 60 -97 168 -138 97
-36 124 -58 136 -112 5 -19 1 -32 -15 -48 -20 -20 -30 -22 -118 -19 -67 3 -96
1 -99 -8 -7 -21 58 -46 121 -46 64 0 107 15 140 52 26 28 25 98 0 142 -19 33
-103 88 -135 89 -32 0 -120 53 -134 81 -37 71 -3 149 64 149 41 0 58 -13 85
-67 9 -18 23 -33 31 -33 21 0 19 39 -5 77 -33 55 -89 80 -144 63z"/>
<path d="M1724 1236 c-70 -31 -105 -137 -69 -207 10 -19 46 -65 81 -102 70
-76 85 -116 62 -164 -10 -22 -21 -29 -51 -31 -31 -3 -49 4 -97 37 -81 55 -116
52 -75 -7 31 -43 104 -76 168 -77 52 0 61 3 82 28 54 62 45 144 -24 219 -113
123 -129 182 -67 244 68 68 136 28 136 -81 0 -39 3 -46 18 -43 14 3 17 14 17
66 0 56 -3 65 -31 93 -37 37 -101 48 -150 25z"/>
<path d="M2960 1195 c-76 -15 -150 -43 -150 -56 0 -17 31 -22 68 -11 20 6 38
10 40 7 2 -2 15 -108 28 -237 13 -128 26 -239 29 -245 2 -7 14 -13 25 -13 25
0 25 -4 0 246 -30 303 -33 267 25 279 32 7 50 16 50 26 0 19 -36 20 -115 4z"/>
<path d="M1990 1174 c-12 -31 -63 -281 -85 -418 -13 -81 -13 -92 0 -106 21
-20 29 -6 44 71 10 50 15 59 34 59 33 1 99 34 129 66 35 38 68 112 74 172 4
37 0 57 -18 91 -29 57 -64 82 -122 88 -43 5 -46 4 -56 -23z m103 -48 c33 -30
41 -63 34 -128 -9 -70 -47 -131 -98 -156 -23 -12 -45 -19 -49 -17 -4 2 6 66
22 142 16 76 31 148 34 161 6 29 25 28 57 -2z"/>
<path d="M2313 1136 c-66 -56 -132 -270 -117 -381 14 -109 56 -165 123 -165
64 0 107 18 149 63 53 59 83 141 89 248 7 107 -9 179 -49 225 -29 32 -33 34
-98 34 -58 0 -73 -4 -97 -24z m144 -14 c48 -30 61 -216 23 -335 -14 -46 -33
-80 -59 -108 -36 -37 -43 -40 -83 -37 -39 3 -45 7 -62 41 -10 21 -21 67 -24
102 -13 170 121 391 205 337z"/>
<path d="M2616 1148 l-29 -11 7 -261 c4 -143 11 -265 15 -269 21 -21 31 8 31
84 0 43 3 79 8 79 4 0 45 -38 92 -85 47 -47 90 -85 97 -85 34 0 -4 65 -94 161
l-34 36 29 12 c37 15 77 57 91 94 23 60 6 153 -37 200 -38 42 -124 64 -176 45z
m115 -59 c15 -10 35 -39 44 -64 33 -85 0 -165 -79 -195 -53 -20 -56 -13 -56
138 0 76 3 142 7 146 11 10 52 -2 84 -25z"/>
</g>
</svg>
